HIERARCHY
ROOT Hips
{
	OFFSET 0.00 0.00 0.00
	CHANNELS 6 Xposition Yposition Zposition Xrotation Yrotation Zrotation
	JOINT LeftUpLeg
	{
		OFFSET 3.25772 0.00000 0.00000
		CHANNELS 3 Xrotation Yrotation Zrotation
		JOINT LeftLeg
		{
			OFFSET 0.00000 -15.35355 0.00000
			CHANNELS 3 Xrotation Yrotation Zrotation
			JOINT LeftFoot
			{
				OFFSET 0.00000 -16.48949 0.00000
				CHANNELS 3 Xrotation Yrotation Zrotation
				JOINT LeftToeBase
				{
					OFFSET 0.00000 -1.72224 6.42750
					CHANNELS 3 Xrotation Yrotation Zrotation
					End Site
					{
						OFFSET 0.00000 0.00000 2.95275
					}
				}
			}
		}
	}
	JOINT RightUpLeg
	{
		OFFSET -3.25772 0.00000 0.00000
		CHANNELS 3 Xrotation Yrotation Zrotation
		JOINT RightLeg
		{
			OFFSET 0.00000 -15.35355 0.00000
			CHANNELS 3 Xrotation Yrotation Zrotation
			JOINT RightFoot
			{
				OFFSET 0.00000 -16.48949 0.00000
				CHANNELS 3 Xrotation Yrotation Zrotation
				JOINT RightToeBase
				{
					OFFSET 0.00000 -1.72224 6.42750
					CHANNELS 3 Xrotation Yrotation Zrotation
					End Site
					{
						OFFSET 0.00000 0.00000 2.95275
					}
				}
			}
		}
	}
	JOINT Spine
	{
		OFFSET 0.00000 0.03937 0.00000
		CHANNELS 3 Xrotation Yrotation Zrotation
		JOINT Spine1
		{
			OFFSET 0.00000 10.14986 0.00000
			CHANNELS 3 Xrotation Yrotation Zrotation
			JOINT Neck
			{
				OFFSET 0.00000 9.84250 0.00000
				CHANNELS 3 Xrotation Yrotation Zrotation
				JOINT Head
				{
					OFFSET 0.00000 4.54023 0.00000
					CHANNELS 3 Xrotation Yrotation Zrotation
					End Site
					{
						OFFSET 0.00000 4.52755 0.00000
					}
				}
			}
			JOINT LeftShoulder
			{
				OFFSET 0.00000 9.84250 0.00000
				CHANNELS 3 Xrotation Yrotation Zrotation
				JOINT LeftArm
				{
					OFFSET 7.21510 -0.00003 0.00000
					CHANNELS 3 Xrotation Yrotation Zrotation
					JOINT LeftForeArm
					{
						OFFSET 10.66411 -0.00004 0.00000
						CHANNELS 3 Xrotation Yrotation Zrotation
						JOINT LeftHand
						{
							OFFSET 8.93656 -0.00003 0.00000
							CHANNELS 3 Xrotation Yrotation Zrotation
							JOINT L_Wrist_End
							{
								OFFSET 3.93700 -0.00001 0.00000
								CHANNELS 3 Xrotation Yrotation Zrotation
							}
						}
					}
				}
			}
			JOINT RightShoulder
			{
				OFFSET 0.00000 9.84250 0.00000
				CHANNELS 3 Xrotation Yrotation Zrotation
				JOINT RightArm
				{
					OFFSET -7.21510 -0.00003 0.00000
					CHANNELS 3 Xrotation Yrotation Zrotation
					JOINT RightForeArm
					{
						OFFSET -10.66411 -0.00004 0.00000
						CHANNELS 3 Xrotation Yrotation Zrotation
						JOINT RightHand
						{
							OFFSET -8.93656 -0.00003 0.00000
							CHANNELS 3 Xrotation Yrotation Zrotation
							JOINT R_Wrist_End
							{
								OFFSET -5.41338 -0.00002 0.00000
								CHANNELS 3 Xrotation Yrotation Zrotation
							}
						}
					}
				}
			}
		}
	}
}
MOTION
Frames: 7
Frame Time: 0.008333
 2.4925 33.1249 44.8997 4.1396 -6.3018 0.4642 -20.9002 17.4371 8.3806 1.7137 0.0000 0.0000 -0.9699 2.7187 -4.3314 -37.2435 0.0000 -0.0000 7.4835 5.9605 1.2762 9.3634 -0.0000 0.0000 -10.7165 -10.0920 -5.7357 -33.3173 0.0000 0.0000 -19.4967 2.8758 -1.6705 30.7287 5.6981 -1.3000 -5.2702 5.3167 7.7035 9.0257 -24.1691 -26.3028 20.1041 9.1394 3.9711 -11.7154 -47.3451 -74.4322 -0.0001 -22.2246 -0.0000 -0.6431 3.2682 16.4782 -0.0000 -0.0000 0.0000 12.9690 2.1655 -3.6654 -11.5743 51.9449 60.4157 -0.0002 45.4332 0.0001 -13.4235 -12.9989 -18.4512 -0.0000 0.0000 -0.0000
 2.5006 33.0833 45.1348 4.0126 -6.2943 0.2301 -20.6543 17.2096 8.5363 1.4759 0.0000 0.0000 -1.1615 2.9707 -4.4620 -37.2390 0.0000 0.0000 7.9051 5.9529 1.4446 9.5722 -0.0000 0.0000 -10.8568 -10.0993 -5.8317 -33.5415 0.0000 -0.0000 -19.3695 3.0181 -1.4841 30.6474 5.6270 -1.5027 -4.7909 6.0436 8.3936 7.7515 -24.8617 -27.5681 20.0235 9.0819 3.9892 -11.4081 -47.1023 -74.4656 -0.0001 -21.7912 -0.0000 -0.3425 2.7067 16.6248 -0.0000 0.0000 -0.0000 12.8795 2.1021 -3.6219 -11.4988 52.2216 60.6007 -0.0002 45.3841 0.0001 -13.0385 -12.9038 -18.1541 -0.0000 0.0000 -0.0000
 2.5296 33.0444 45.3445 4.0786 -6.3602 0.1838 -20.7014 16.9632 8.5589 1.6303 0.0000 0.0000 -1.2212 3.1387 -4.4162 -37.4737 0.0000 0.0000 8.1088 5.4817 1.3716 9.7926 -0.0000 0.0000 -11.0091 -9.6303 -5.7612 -33.8027 0.0000 -0.0000 -19.3586 3.1103 -1.5027 30.5838 5.6456 -1.6273 -4.9998 5.7526 8.1253 8.0644 -24.7567 -27.5277 20.1065 9.2226 3.8084 -11.5066 -46.8960 -74.6008 -0.0001 -21.6874 -0.0000 -0.0862 3.6475 16.4048 -0.0000 -0.0000 0.0000 13.0393 2.1143 -3.6443 -11.5238 52.2719 60.5773 -0.0002 45.6350 0.0001 -12.8056 -13.3105 -17.9372 -0.0000 -0.0000 0.0000
 2.5611 33.0138 45.5869 4.0934 -6.7570 0.1553 -20.5315 16.9988 8.6454 1.8032 0.0000 -0.0000 -1.3270 3.1623 -4.2525 -37.3598 0.0000 0.0000 8.2945 5.6390 1.2321 10.1822 -0.0000 0.0000 -11.1835 -9.4015 -5.6512 -33.9781 0.0000 0.0000 -19.4576 3.3569 -1.3980 30.6288 5.7264 -1.8560 -5.1456 5.6461 7.8931 8.4548 -24.5612 -27.4266 20.0318 9.4734 3.5957 -11.4543 -46.8977 -74.6650 -0.0001 -21.2390 -0.0000 -0.2335 3.3191 16.3862 -0.0000 0.0000 -0.0000 13.4088 2.1973 -3.6862 -11.5476 52.5875 60.4050 -0.0002 45.7270 0.0001 -12.5751 -13.4622 -18.2140 -0.0000 0.0000 -0.0000
 2.5754 32.9680 45.8073 4.1108 -6.8917 0.1074 -20.5496 16.4877 8.7530 2.4525 0.0000 0.0000 -1.4500 3.4319 -4.0015 -37.2917 0.0000 -0.0000 8.4514 5.5439 1.1973 10.5894 -0.0000 0.0000 -11.4452 -9.2392 -5.6159 -34.2546 0.0000 0.0000 -19.3692 3.6308 -1.3688 30.4482 5.8469 -2.1059 -5.1458 5.4280 7.8533 8.5218 -24.6533 -27.4225 20.0809 9.5026 3.8006 -11.6673 -47.1691 -74.9234 -0.0001 -20.6098 -0.0000 -0.6688 3.3145 16.3815 -0.0000 0.0000 -0.0000 13.4870 2.1540 -3.6572 -11.4911 52.3547 60.6485 -0.0002 45.9592 0.0001 -12.6843 -13.2890 -18.0587 -0.0000 -0.0000 0.0000
 2.6215 32.9392 46.0444 4.0697 -6.9796 0.0722 -20.3753 16.4875 8.7274 2.9393 0.0000 0.0000 -1.4084 3.2408 -3.7515 -37.3727 0.0000 -0.0000 8.7470 5.4415 1.0549 10.8919 -0.0000 0.0000 -11.4908 -9.0272 -5.5279 -34.6567 0.0000 -0.0000 -19.3983 3.7959 -1.2546 30.5255 5.8006 -2.3462 -5.1956 5.3682 7.7538 8.4864 -24.7125 -27.6317 20.0570 9.3677 3.6862 -11.6093 -46.4865 -75.0124 -0.0001 -20.4255 -0.0000 0.2873 3.5518 16.3354 -0.0000 0.0000 -0.0000 13.2163 2.2528 -3.7134 -11.1965 52.2579 60.8797 -0.0002 46.0513 0.0001 -12.3810 -13.2919 -17.9007 -0.0000 -0.0000 0.0000
 2.6576 32.9074 46.2808 4.1087 -7.0813 0.0163 -20.3814 16.1713 8.7866 3.7402 -0.0000 0.0000 -1.3411 3.1780 -3.5573 -36.9977 0.0000 -0.0000 8.8818 5.1951 0.9557 11.3376 -0.0000 0.0000 -11.5491 -8.6738 -5.3436 -35.1387 0.0000 -0.0000 -19.4260 3.8849 -1.2876 30.4437 5.8262 -2.4627 -5.1290 5.3488 7.5969 8.4906 -24.7253 -27.6804 20.1548 9.4562 3.5575 -11.5675 -46.4085 -75.0292 -0.0001 -20.1777 -0.0000 0.7971 3.6078 16.3453 -0.0000 -0.0000 0.0000 13.3822 2.2742 -3.7198 -10.9675 52.3842 60.7551 -0.0002 46.1357 0.0001 -12.3319 -13.1873 -17.8057 -0.0000 0.0000 -0.0000
